<svg version="1" xmlns="http://www.w3.org/2000/svg" width="1024" height="1024" viewBox="0 0 768.000000 768.000000"><path d="M63 2C34.2 7.9 10.2 30.9 2.3 60c-1.9 7-2.4 25.6-1 34.4 2.4 14.8 11.2 31.4 22.6 42.7 9.3 9.2 24.2 17.5 36.6 20.5 8.5 2 26.4 2.7 32.5 1.3 2.5-.6 5.5-1.3 6.8-1.5 1.3-.3 4.7-1.4 7.5-2.4 2.9-1.1 5.5-2 5.8-2 .4 0 3.8 4.2 7.5 9.2 3.8 5.1 7.3 9.8 7.9 10.5.5.6 2.1 2.8 3.5 4.8s3.4 4.8 4.6 6.3c2.3 2.9 66.1 89.7 73.7 100.2 5 6.8 5.5 8.4 3.3 9.7-4.6 2.7-18.2 21.5-24.4 33.8-3.7 7.5-9.5 24.1-10.7 31-.2 1.6-.8 4.1-1.1 5.5-.3 1.4-.8 9-.9 17-.6 26.6 6 50.5 20 72.4 3.9 6.2 13.4 17.8 17.2 21.1l2.3 2.1-8.1 10.9c-11.1 15.1-24.8 33.7-35.4 48-4.9 6.6-11.2 15.1-14 19-2.9 3.8-13.6 18.5-24 32.5-10.3 14-19.3 26.1-20 26.8-1.1 1.2-2.5 1-8.6-1.1-4.1-1.4-8.7-2.9-10.4-3.2-5.4-1.1-22.9-1.4-28-.4-2.7.5-6.2 1.2-7.7 1.4-10.2 1.8-26.6 11.3-36.4 21-7.9 7.9-17.7 23.6-19.7 31.6-4.3 17.7-4.7 27.2-1.6 42.2 5.3 26.1 27 50.5 51.8 58.3 38.9 12.3 78-3.4 97-38.9 8.5-15.7 11.1-37.6 6.6-55.3-2.6-10.3-7.3-20.2-13.7-28.9l-4.4-6 18.4-25c23.7-32.2 35.1-47.7 59.9-81.5 11.1-15.1 21.1-28.6 22.2-29.9l1.9-2.5 7.4 3.6c28.7 14.2 63.7 16.5 94.8 6.1 28.1-9.3 55.5-31.2 69-55.1 3-5.3 3.8-6.1 5.8-5.7 2 .5 81.4 30 87.4 32.4 2 .9 24.2 9.2 41.3 15.5 3.3 1.3 18.4 6.9 33.5 12.5l27.5 10.3.1 13.2c0 9.4.5 14.9 1.9 19.6 10.1 36.3 41 59.8 78.7 59.8 42.1 0 77.9-35.3 78.2-77.3.1-12.2-.7-18-4.2-29-1.3-4.2-7-15.6-8.8-17.6-.8-.8-1.4-1.9-1.4-2.3 0-.4-1.7-2.5-3.7-4.8-13.9-15.3-28.1-23.8-45.8-27.3-5.6-1.1-23-1.4-28.7-.4-19.2 3.2-40.4 16.3-50.9 31.5-1.6 2.4-3.4 4.4-3.8 4.4-.4 0-13.6-4.8-29.2-10.6-15.6-5.9-31.1-11.7-34.4-12.9-3.3-1.2-14.8-5.5-25.5-9.4-10.7-4-20.2-7.5-21-7.8-.8-.4-19.5-7.4-41.5-15.7-30-11.4-39.9-15.5-39.6-16.6 3.1-13.3 3.6-39.2.8-51.7l-1.3-6.1 19-7.1c26.8-9.8 80.4-29.9 84.6-31.6 1.9-.8 10.7-4.1 19.5-7.3 8.8-3.3 27.9-10.4 42.3-15.8 25.7-9.6 26.4-9.8 27.8-7.9 4.1 5.7 10.4 12.6 15.1 16.5 6.3 5.3 18.4 12.6 23.3 14.1 10.8 3.3 19.1 4.7 27.9 4.7 44.9.1 81.1-36.9 79.6-81.2-.4-10.9-.7-13.2-3.1-21.6-1.4-5-8.9-20.8-10.4-22-.4-.3-1.1-1.3-1.6-2.2-1.1-1.9-9.8-11.2-14-14.8-6.2-5.4-20.2-12.8-27.9-14.9-7.7-2-10.1-2.3-20.5-2.6-26.3-.8-49.3 10.2-66 31.5-4.2 5.4-11.2 18.4-12.3 23.1-3.2 12.9-3.6 16.3-3.4 26.5l.3 11-29.1 10.9c-15.9 6-30.3 11.4-32 12.1-1.6.7-17.2 6.5-34.5 12.9s-32.4 12.1-33.5 12.6c-2.7 1.2-58.5 22-60.6 22.6-1.2.3-3-1.6-6.4-6.8-20.4-31.6-48.5-50.9-84.8-58.6-11.5-2.4-36.2-2.4-47.7 0-10.3 2.2-20.9 5.7-30.6 10.3-4 1.9-7.5 3.4-7.7 3.4-.3 0-3.7-4.4-7.6-9.8-4-5.3-26.9-36.5-51-69.2l-43.9-59.5 2.2-2.5c6.1-6.7 12-18.2 15.7-30.1 3.1-10.1 3.1-29.6.1-41.1C147.7 24.5 116.3.3 80 .2 75.3.2 67.7 1 63 2z"/></svg>